<svg xmlns="http://www.w3.org/2000/svg" xmlns:xlink="http://www.w3.org/1999/xlink" width="145" height="108" viewBox="0 0 145 108"><defs><style>.a{fill:none;}.b{fill:#fff;}.c{fill:#040504;}.d{clip-path:url(#a);}.e{fill:#00244a;}.f{fill:#c50019;}</style><clipPath id="a"><rect class="a" width="118.561" height="75.97"/></clipPath></defs><g transform="translate(-128.776 -2956)"><rect class="b" width="145" height="108" transform="translate(128.776 2956)"/><g transform="translate(141.74 2971.754)"><path class="c" d="M14.42,139.8l-4.448,7.189L5.524,139.8H.063v18.57H5.125V147.755l4.741,7.216h.107L14.74,147.7v10.664h5.14V139.8Z" transform="translate(-0.038 -82.742)"/><g class="d"><path class="c" d="M56.121,150.223V139.8h5.247v10.32c0,2.679,1.359,3.953,3.436,3.953s3.436-1.22,3.436-3.82V139.8h5.247V150.09c0,6-3.436,8.622-8.736,8.622s-8.63-2.68-8.63-8.489" transform="translate(-33.217 -82.743)"/><path class="c" d="M102.716,155.146l2.877-3.422a9.626,9.626,0,0,0,6.046,2.228c1.385,0,2.131-.478,2.131-1.273v-.053c0-.769-.613-1.194-3.143-1.777-3.969-.9-7.032-2.017-7.032-5.836v-.053c0-3.449,2.743-5.942,7.218-5.942a11.766,11.766,0,0,1,7.671,2.467l-2.583,3.634a9.375,9.375,0,0,0-5.221-1.83c-1.252,0-1.864.531-1.864,1.194v.053c0,.849.64,1.22,3.223,1.8,4.288.928,6.952,2.308,6.952,5.784v.053c0,3.794-3.01,6.049-7.538,6.049a13.057,13.057,0,0,1-8.736-3.078" transform="translate(-60.795 -82.281)"/><path class="c" d="M148.723,139.8h15v4.378h-9.882v2.812h8.949v4.059h-8.949v2.944h10.015v4.378H148.723Z" transform="translate(-88.026 -82.742)"/><path class="c" d="M191.663,150.223V139.8h5.247v10.32c0,2.679,1.359,3.953,3.436,3.953s3.436-1.22,3.436-3.82V139.8h5.247V150.09c0,6-3.436,8.622-8.736,8.622s-8.63-2.68-8.63-8.489" transform="translate(-113.441 -82.743)"/><path class="c" d="M241.717,139.8h5.46l4.448,7.19,4.449-7.19h5.46v18.57h-5.14V147.7l-4.768,7.269h-.106l-4.741-7.216v10.612h-5.061Z" transform="translate(-143.067 -82.742)"/><path class="c" d="M.115,98.377H1.4l7.684,9.775V98.377H10.43v12.2h-1.1l-7.876-10v10H.115Z" transform="translate(-0.068 -58.227)"/><rect class="c" width="1.377" height="12.197" transform="translate(14.519 40.15)"/><path class="c" d="M52.413,98.164h-1.29l-5.558,12.284h1.411l1.446-3.224h6.639l1.429,3.224h1.481Zm-3.45,7.823,2.788-6.221,2.771,6.221Z" transform="translate(-26.969 -58.101)"/><path class="c" d="M79.212,104.207v-.035a6.121,6.121,0,0,1,6.116-6.308,6.426,6.426,0,0,1,4.548,1.621l-.888,1.045a5.189,5.189,0,0,0-3.711-1.394,4.765,4.765,0,0,0-4.635,5v.035c0,2.91,1.864,5.07,4.826,5.07a5.743,5.743,0,0,0,3.52-1.219v-3.032H85.275v-1.237h5.036v4.861a7.389,7.389,0,0,1-4.9,1.865,5.981,5.981,0,0,1-6.2-6.273" transform="translate(-46.884 -57.923)"/><path class="c" d="M118.725,98.164h-1.29l-5.558,12.284h1.411l1.446-3.224h6.639l1.429,3.224h1.481Zm-3.45,7.823,2.788-6.221,2.771,6.221Z" transform="translate(-66.217 -58.101)"/><path class="c" d="M154.942,105.591c1.917-.349,3.31-1.534,3.31-3.555V102a3.369,3.369,0,0,0-.94-2.4,4.809,4.809,0,0,0-3.467-1.22H148.6v12.2h1.377v-4.74h3.485l3.537,4.74h1.69Zm-4.966-.994V99.649h3.764c1.969,0,3.119.906,3.119,2.405v.035c0,1.568-1.307,2.509-3.136,2.509Z" transform="translate(-87.952 -58.227)"/><path class="c" d="M184.183,98.164h-1.29l-5.558,12.284h1.412l1.446-3.224h6.639l1.429,3.224h1.481Zm-3.45,7.823,2.788-6.221,2.77,6.221Z" transform="translate(-104.96 -58.101)"/><path class="c" d="M216.745,97.986a2.781,2.781,0,0,0-2.845,2.807v.016a2.838,2.838,0,0,0,5.675-.016v-.016a2.755,2.755,0,0,0-2.83-2.791m1.83,2.822a1.834,1.834,0,0,1-1.83,1.915,1.859,1.859,0,0,1-1.846-1.93v-.016a1.834,1.834,0,0,1,1.83-1.915,1.86,1.86,0,0,1,1.845,1.93Z" transform="translate(-126.602 -57.996)"/><path class="c" d="M231.114,98.215H232l2.907,3.752V98.215h.938v5.427h-.8l-2.993-3.861v3.861h-.938Z" transform="translate(-136.791 -58.131)"/><path class="c" d="M253.544,99.1h-1.721v-.884h4.4V99.1h-1.721v4.544h-.962Z" transform="translate(-149.048 -58.131)"/><path class="c" d="M265.56,98.215h.954v2.256h2.59V98.215h.954v5.427H269.1v-2.288h-2.59v2.288h-.954Z" transform="translate(-157.179 -58.131)"/><path class="c" d="M280.475,98.215H284.5v.853h-3.07v1.411h2.721v.853h-2.721v1.457h3.109v.853h-4.062Z" transform="translate(-166.007 -58.131)"/><path class="c" d="M226.2,114.965h.954v4.559h2.853v.868H226.2Z" transform="translate(-133.884 -68.045)"/><path class="c" d="M240.57,114.87h-.884l-2.388,5.466h.977l.559-1.31H241.4l.55,1.31h1.008Zm-1.388,3.31.931-2.171.938,2.171Z" transform="translate(-140.451 -67.989)"/><path class="c" d="M253.923,114.965h.954v2.729l2.582-2.729h1.171l-2.256,2.334,2.357,3.094h-1.155l-1.853-2.443-.845.868v1.574h-.954Z" transform="translate(-150.291 -68.045)"/><path class="c" d="M268.173,114.965H272.2v.853h-3.07v1.411h2.721v.853h-2.721v1.457h3.109v.853h-4.062Z" transform="translate(-158.725 -68.045)"/><path class="e" d="M29.419,0,0,17.54V35.389L29.419,17.85,59.358,0Z" transform="translate(0 0)"/><path class="f" d="M0,0H29.772L0,17.75Z" transform="translate(0 0)"/><path class="f" d="M175,0,204.42,17.54V35.389L175,17.85,145.062,0Z" transform="translate(-85.859 0)"/><path class="e" d="M247.326,0H217.553l29.773,17.75Z" transform="translate(-128.765 0)"/></g></g></g></svg>