<svg width="1162" height="588" viewBox="0 0 1162 588" fill="none" xmlns="http://www.w3.org/2000/svg">
<rect x="94.9678" y="188" width="89.0323" height="58" fill="#D9D9D9"/>
<rect y="246" width="94.9677" height="127" fill="#D9D9D9"/>
<rect x="95" y="246" width="284" height="228" fill="#D9D9D9"/>
<rect x="379" y="324" width="529" height="150" fill="#D9D9D9"/>
<rect x="603" y="276" width="78" height="48" fill="#D9D9D9"/>
<rect x="908" y="22" width="254" height="541" fill="#D9D9D9"/>
<rect x="151" y="474" width="186" height="114" fill="#D9D9D9"/>
<path d="M10.4091 316V304.364H14.3409C15.25 304.364 15.9962 304.519 16.5795 304.83C17.1629 305.136 17.5947 305.559 17.875 306.097C18.1553 306.634 18.2955 307.246 18.2955 307.932C18.2955 308.617 18.1553 309.225 17.875 309.756C17.5947 310.286 17.1648 310.703 16.5852 311.006C16.0057 311.305 15.2652 311.455 14.3636 311.455H11.1818V310.182H14.3182C14.9394 310.182 15.4394 310.091 15.8182 309.909C16.2008 309.727 16.4773 309.47 16.6477 309.136C16.822 308.799 16.9091 308.398 16.9091 307.932C16.9091 307.466 16.822 307.059 16.6477 306.71C16.4735 306.362 16.1951 306.093 15.8125 305.903C15.4299 305.71 14.9242 305.614 14.2955 305.614H11.8182V316H10.4091ZM15.8864 310.773L18.75 316H17.1136L14.2955 310.773H15.8864ZM24.027 316.182C23.1861 316.182 22.4607 315.996 21.8509 315.625C21.2448 315.25 20.777 314.727 20.4474 314.057C20.1217 313.383 19.9588 312.598 19.9588 311.705C19.9588 310.811 20.1217 310.023 20.4474 309.341C20.777 308.655 21.2353 308.121 21.8224 307.739C22.4134 307.352 23.1027 307.159 23.8906 307.159C24.3452 307.159 24.794 307.235 25.2372 307.386C25.6804 307.538 26.0838 307.784 26.4474 308.125C26.8111 308.462 27.1009 308.909 27.3168 309.466C27.5327 310.023 27.6406 310.708 27.6406 311.523V312.091H20.9134V310.932H26.277C26.277 310.439 26.1785 310 25.9815 309.614C25.7884 309.227 25.5118 308.922 25.152 308.699C24.7959 308.475 24.3755 308.364 23.8906 308.364C23.3565 308.364 22.8944 308.496 22.5043 308.761C22.1179 309.023 21.8205 309.364 21.6122 309.784C21.4039 310.205 21.2997 310.655 21.2997 311.136V311.909C21.2997 312.568 21.4134 313.127 21.6406 313.585C21.8717 314.04 22.1918 314.386 22.6009 314.625C23.0099 314.86 23.4853 314.977 24.027 314.977C24.3793 314.977 24.6974 314.928 24.9815 314.83C25.2694 314.727 25.5175 314.576 25.7259 314.375C25.9342 314.17 26.0952 313.917 26.2088 313.614L27.5043 313.977C27.3679 314.417 27.1387 314.803 26.8168 315.136C26.4948 315.466 26.0971 315.723 25.6236 315.909C25.1501 316.091 24.6179 316.182 24.027 316.182ZM33.2259 316.182C32.4077 316.182 31.7031 315.989 31.1122 315.602C30.5213 315.216 30.0668 314.684 29.7486 314.006C29.4304 313.328 29.2713 312.553 29.2713 311.682C29.2713 310.795 29.4342 310.013 29.7599 309.335C30.0895 308.653 30.5478 308.121 31.1349 307.739C31.7259 307.352 32.4152 307.159 33.2031 307.159C33.8168 307.159 34.3698 307.273 34.8622 307.5C35.3546 307.727 35.758 308.045 36.0724 308.455C36.3868 308.864 36.5819 309.341 36.6577 309.886H35.3168C35.2145 309.489 34.9872 309.136 34.6349 308.83C34.2865 308.519 33.8168 308.364 33.2259 308.364C32.7031 308.364 32.2448 308.5 31.8509 308.773C31.4607 309.042 31.1558 309.422 30.9361 309.915C30.7202 310.403 30.6122 310.977 30.6122 311.636C30.6122 312.311 30.7183 312.898 30.9304 313.398C31.1463 313.898 31.4493 314.286 31.8395 314.562C32.2334 314.839 32.6955 314.977 33.2259 314.977C33.5743 314.977 33.8906 314.917 34.1747 314.795C34.4588 314.674 34.6993 314.5 34.8963 314.273C35.0933 314.045 35.2334 313.773 35.3168 313.455H36.6577C36.5819 313.97 36.3944 314.434 36.0952 314.847C35.7997 315.256 35.4077 315.581 34.919 315.824C34.4342 316.062 33.8698 316.182 33.2259 316.182ZM42.277 316.182C41.4361 316.182 40.7107 315.996 40.1009 315.625C39.4948 315.25 39.027 314.727 38.6974 314.057C38.3717 313.383 38.2088 312.598 38.2088 311.705C38.2088 310.811 38.3717 310.023 38.6974 309.341C39.027 308.655 39.4853 308.121 40.0724 307.739C40.6634 307.352 41.3527 307.159 42.1406 307.159C42.5952 307.159 43.044 307.235 43.4872 307.386C43.9304 307.538 44.3338 307.784 44.6974 308.125C45.0611 308.462 45.3509 308.909 45.5668 309.466C45.7827 310.023 45.8906 310.708 45.8906 311.523V312.091H39.1634V310.932H44.527C44.527 310.439 44.4285 310 44.2315 309.614C44.0384 309.227 43.7618 308.922 43.402 308.699C43.0459 308.475 42.6255 308.364 42.1406 308.364C41.6065 308.364 41.1444 308.496 40.7543 308.761C40.3679 309.023 40.0705 309.364 39.8622 309.784C39.6539 310.205 39.5497 310.655 39.5497 311.136V311.909C39.5497 312.568 39.6634 313.127 39.8906 313.585C40.1217 314.04 40.4418 314.386 40.8509 314.625C41.2599 314.86 41.7353 314.977 42.277 314.977C42.6293 314.977 42.9474 314.928 43.2315 314.83C43.5194 314.727 43.7675 314.576 43.9759 314.375C44.1842 314.17 44.3452 313.917 44.4588 313.614L45.7543 313.977C45.6179 314.417 45.3887 314.803 45.0668 315.136C44.7448 315.466 44.3471 315.723 43.8736 315.909C43.4001 316.091 42.8679 316.182 42.277 316.182ZM47.9304 319.273V307.273H49.2259V308.659H49.3849C49.4834 308.508 49.6198 308.314 49.794 308.08C49.9721 307.841 50.2259 307.629 50.5554 307.443C50.8887 307.254 51.3395 307.159 51.9077 307.159C52.6425 307.159 53.2902 307.343 53.8509 307.71C54.4115 308.078 54.849 308.598 55.1634 309.273C55.4777 309.947 55.6349 310.742 55.6349 311.659C55.6349 312.583 55.4777 313.384 55.1634 314.062C54.849 314.737 54.4134 315.259 53.8565 315.631C53.2997 315.998 52.6577 316.182 51.9304 316.182C51.3698 316.182 50.9209 316.089 50.5838 315.903C50.2467 315.714 49.9872 315.5 49.8054 315.261C49.6236 315.019 49.4834 314.818 49.3849 314.659H49.2713V319.273H47.9304ZM49.2486 311.636C49.2486 312.295 49.3452 312.877 49.5384 313.381C49.7315 313.881 50.0137 314.273 50.3849 314.557C50.7562 314.837 51.2107 314.977 51.7486 314.977C52.3092 314.977 52.777 314.83 53.152 314.534C53.5308 314.235 53.8149 313.833 54.0043 313.33C54.1974 312.822 54.294 312.258 54.294 311.636C54.294 311.023 54.1993 310.47 54.0099 309.977C53.8243 309.481 53.5421 309.089 53.1634 308.801C52.7884 308.509 52.3168 308.364 51.7486 308.364C51.2031 308.364 50.7448 308.502 50.3736 308.778C50.0024 309.051 49.7221 309.434 49.5327 309.926C49.3433 310.415 49.2486 310.985 49.2486 311.636ZM61.4759 307.273V308.409H56.9531V307.273H61.4759ZM58.2713 305.182H59.6122V313.5C59.6122 313.879 59.6671 314.163 59.777 314.352C59.8906 314.538 60.0346 314.663 60.2088 314.727C60.3868 314.788 60.5743 314.818 60.7713 314.818C60.919 314.818 61.0402 314.811 61.1349 314.795C61.2296 314.777 61.3054 314.761 61.3622 314.75L61.6349 315.955C61.544 315.989 61.4171 316.023 61.2543 316.057C61.0914 316.095 60.8849 316.114 60.6349 316.114C60.2562 316.114 59.8849 316.032 59.5213 315.869C59.1615 315.706 58.8622 315.458 58.6236 315.125C58.3887 314.792 58.2713 314.371 58.2713 313.864V305.182ZM63.4929 316V307.273H64.8338V316H63.4929ZM64.1747 305.818C63.9134 305.818 63.688 305.729 63.4986 305.551C63.313 305.373 63.2202 305.159 63.2202 304.909C63.2202 304.659 63.313 304.445 63.4986 304.267C63.688 304.089 63.9134 304 64.1747 304C64.4361 304 64.6596 304.089 64.8452 304.267C65.0346 304.445 65.1293 304.659 65.1293 304.909C65.1293 305.159 65.0346 305.373 64.8452 305.551C64.6596 305.729 64.4361 305.818 64.1747 305.818ZM70.8352 316.182C70.0473 316.182 69.3561 315.994 68.7614 315.619C68.1705 315.244 67.7083 314.72 67.375 314.045C67.0455 313.371 66.8807 312.583 66.8807 311.682C66.8807 310.773 67.0455 309.979 67.375 309.301C67.7083 308.623 68.1705 308.097 68.7614 307.722C69.3561 307.347 70.0473 307.159 70.8352 307.159C71.6231 307.159 72.3125 307.347 72.9034 307.722C73.4981 308.097 73.9602 308.623 74.2898 309.301C74.6231 309.979 74.7898 310.773 74.7898 311.682C74.7898 312.583 74.6231 313.371 74.2898 314.045C73.9602 314.72 73.4981 315.244 72.9034 315.619C72.3125 315.994 71.6231 316.182 70.8352 316.182ZM70.8352 314.977C71.4337 314.977 71.9261 314.824 72.3125 314.517C72.6989 314.21 72.9848 313.807 73.1705 313.307C73.3561 312.807 73.4489 312.265 73.4489 311.682C73.4489 311.098 73.3561 310.555 73.1705 310.051C72.9848 309.547 72.6989 309.14 72.3125 308.83C71.9261 308.519 71.4337 308.364 70.8352 308.364C70.2367 308.364 69.7443 308.519 69.358 308.83C68.9716 309.14 68.6856 309.547 68.5 310.051C68.3144 310.555 68.2216 311.098 68.2216 311.682C68.2216 312.265 68.3144 312.807 68.5 313.307C68.6856 313.807 68.9716 314.21 69.358 314.517C69.7443 314.824 70.2367 314.977 70.8352 314.977ZM78.1776 310.75V316H76.8366V307.273H78.1321V308.636H78.2457C78.4503 308.193 78.7609 307.837 79.1776 307.568C79.5942 307.295 80.1321 307.159 80.7912 307.159C81.3821 307.159 81.8991 307.28 82.3423 307.523C82.7855 307.761 83.1302 308.125 83.3764 308.614C83.6226 309.098 83.7457 309.712 83.7457 310.455V316H82.4048V310.545C82.4048 309.86 82.2268 309.326 81.8707 308.943C81.5147 308.557 81.026 308.364 80.4048 308.364C79.9768 308.364 79.5942 308.456 79.2571 308.642C78.9238 308.828 78.6605 309.098 78.4673 309.455C78.2741 309.811 78.1776 310.242 78.1776 310.75Z" fill="black"/>
<mask id="mask0_110_8" style="mask-type:alpha" maskUnits="userSpaceOnUse" x="117" y="166" width="22" height="22">
<rect x="117" y="166" width="22" height="22" fill="#D9D9D9"/>
</mask>
<g mask="url(#mask0_110_8)">
<line x1="118" y1="187.5" x2="138" y2="187.5" stroke="black" stroke-dasharray="6 6"/>
<circle cx="117" cy="188" r="21.5" stroke="black"/>
<line x1="117.5" y1="167" x2="117.5" y2="188" stroke="black"/>
</g>
<mask id="mask1_110_8" style="mask-type:alpha" maskUnits="userSpaceOnUse" x="139" y="166" width="22" height="22">
<rect width="22" height="22" transform="matrix(-1 0 0 1 161 166)" fill="#D9D9D9"/>
</mask>
<g mask="url(#mask1_110_8)">
<line x1="140" y1="187.5" x2="160" y2="187.5" stroke="black" stroke-dasharray="6 6"/>
<circle cx="22" cy="22" r="21.5" transform="matrix(-1 0 0 1 183 166)" stroke="black"/>
<line y1="-0.5" x2="21" y2="-0.5" transform="matrix(0 1 1 0 161 167)" stroke="black"/>
</g>
<mask id="mask2_110_8" style="mask-type:alpha" maskUnits="userSpaceOnUse" x="233" y="453" width="22" height="22">
<rect width="22" height="22" transform="matrix(-1 0 0 1 255 453)" fill="#D9D9D9"/>
</mask>
<g mask="url(#mask2_110_8)">
<circle cx="22" cy="22" r="21.5" transform="matrix(-1 0 0 1 277 453)" stroke="black"/>
<line y1="-0.5" x2="21" y2="-0.5" transform="matrix(0 1 1 0 255 454)" stroke="black"/>
</g>
<mask id="mask3_110_8" style="mask-type:alpha" maskUnits="userSpaceOnUse" x="259" y="520" width="22" height="22">
<rect width="22" height="22" transform="matrix(0 -1 -1 0 281 542)" fill="#D9D9D9"/>
</mask>
<g mask="url(#mask3_110_8)">
<circle cx="22" cy="22" r="21.5" transform="matrix(0 -1 -1 0 281 564)" stroke="black"/>
<line y1="-0.5" x2="21" y2="-0.5" transform="matrix(-1 0 0 1 280 542)" stroke="black"/>
</g>
<mask id="mask4_110_8" style="mask-type:alpha" maskUnits="userSpaceOnUse" x="233" y="552" width="22" height="22">
<rect width="22" height="22" transform="matrix(1 0 0 -1 233 574)" fill="#D9D9D9"/>
</mask>
<g mask="url(#mask4_110_8)">
<circle cx="22" cy="22" r="21.5" transform="matrix(1 0 0 -1 211 574)" stroke="black"/>
<line y1="-0.5" x2="21" y2="-0.5" transform="matrix(0 -1 -1 0 233 573)" stroke="black"/>
</g>
<mask id="mask5_110_8" style="mask-type:alpha" maskUnits="userSpaceOnUse" x="207" y="520" width="22" height="22">
<rect x="207" y="542" width="22" height="22" transform="rotate(-90 207 542)" fill="#D9D9D9"/>
</mask>
<g mask="url(#mask5_110_8)">
<circle cx="229" cy="542" r="21.5" transform="rotate(-90 229 542)" stroke="black"/>
<line x1="208" y1="541.5" x2="229" y2="541.5" stroke="black"/>
</g>
<mask id="mask6_110_8" style="mask-type:alpha" maskUnits="userSpaceOnUse" x="620" y="254" width="22" height="22">
<rect x="620" y="254" width="22" height="22" fill="#D9D9D9"/>
</mask>
<g mask="url(#mask6_110_8)">
<circle cx="620" cy="276" r="21.5" stroke="black"/>
<line x1="620.5" y1="255" x2="620.5" y2="276" stroke="black"/>
</g>
<mask id="mask7_110_8" style="mask-type:alpha" maskUnits="userSpaceOnUse" x="642" y="254" width="22" height="22">
<rect width="22" height="22" transform="matrix(-1 0 0 1 664 254)" fill="#D9D9D9"/>
</mask>
<g mask="url(#mask7_110_8)">
<circle cx="22" cy="22" r="21.5" transform="matrix(-1 0 0 1 686 254)" stroke="black"/>
<line y1="-0.5" x2="21" y2="-0.5" transform="matrix(0 1 1 0 664 255)" stroke="black"/>
</g>
<mask id="mask8_110_8" style="mask-type:alpha" maskUnits="userSpaceOnUse" x="1013" y="0" width="22" height="22">
<rect x="1013" width="22" height="22" fill="#D9D9D9"/>
</mask>
<g mask="url(#mask8_110_8)">
<circle cx="1013" cy="22" r="21.5" stroke="black"/>
<line x1="1013.5" y1="1" x2="1013.5" y2="22" stroke="black"/>
</g>
<mask id="mask9_110_8" style="mask-type:alpha" maskUnits="userSpaceOnUse" x="1035" y="0" width="22" height="22">
<rect width="22" height="22" transform="matrix(-1 0 0 1 1057 0)" fill="#D9D9D9"/>
</mask>
<g mask="url(#mask9_110_8)">
<circle cx="22" cy="22" r="21.5" transform="matrix(-1 0 0 1 1079 0)" stroke="black"/>
<line y1="-0.5" x2="21" y2="-0.5" transform="matrix(0 1 1 0 1057 1)" stroke="black"/>
</g>
<rect x="1122.5" y="22.5" width="39" height="39" stroke="black"/>
<rect x="1065.5" y="22.5" width="39" height="39" stroke="black"/>
<rect x="1113.5" y="22.5" width="9" height="39" stroke="black"/>
<rect x="1104.5" y="22.5" width="9" height="39" stroke="black"/>
<rect x="1122.5" y="61.5" width="39" height="9" stroke="black"/>
<rect x="1122.5" y="70.5" width="39" height="9" stroke="black"/>
<rect x="1065.5" y="61.5" width="39" height="9" stroke="black"/>
<rect x="1065.5" y="70.5" width="39" height="9" stroke="black"/>
<rect x="1122.5" y="79.5" width="39" height="9" stroke="black"/>
<rect x="1122.5" y="88.5" width="39" height="9" stroke="black"/>
<rect x="1122.5" y="97.5" width="39" height="9" stroke="black"/>
<rect x="1122.5" y="106.5" width="39" height="9" stroke="black"/>
<rect x="1122.5" y="115.5" width="39" height="9" stroke="black"/>
<rect x="859.5" y="434.5" width="9" height="39" stroke="black"/>
<rect x="850.5" y="434.5" width="9" height="39" stroke="black"/>
<rect x="841.5" y="434.5" width="9" height="39" stroke="black"/>
<rect x="832.5" y="434.5" width="9" height="39" stroke="black"/>
<rect x="823.5" y="434.5" width="9" height="39" stroke="black"/>
<rect x="814.5" y="434.5" width="9" height="39" stroke="black"/>
<rect x="805.5" y="434.5" width="9" height="39" stroke="black"/>
<rect x="796.5" y="434.5" width="9" height="39" stroke="black"/>
<rect x="787.5" y="434.5" width="9" height="39" stroke="black"/>
<rect x="748.5" y="425.5" width="39" height="9" stroke="black"/>
<rect x="748.5" y="416.5" width="39" height="9" stroke="black"/>
<rect x="868.5" y="425.5" width="39" height="9" stroke="black"/>
<rect x="868.5" y="416.5" width="39" height="9" stroke="black"/>
<rect x="868.5" y="434.5" width="39" height="39" stroke="black"/>
<rect x="748.5" y="434.5" width="39" height="39" stroke="black"/>
<line x1="258.5" y1="475" x2="258.5" y2="521" stroke="black"/>
<line x1="259.5" y1="542" x2="259.5" y2="588" stroke="black"/>
<line x1="151" y1="474.5" x2="233" y2="474.5" stroke="black"/>
<line x1="255" y1="474.5" x2="337" y2="474.5" stroke="black"/>
<line x1="229.5" y1="475" x2="229.5" y2="521" stroke="black"/>
<line x1="228.5" y1="542" x2="228.5" y2="588" stroke="black"/>
<rect x="93.5" y="246.5" width="3" height="126" stroke="black" stroke-dasharray="4 8"/>
<line x1="229" y1="552.5" x2="233" y2="552.5" stroke="black"/>
<line x1="255" y1="552.5" x2="259" y2="552.5" stroke="black"/>
<rect x="165" y="520" width="15" height="20" rx="1" fill="black"/>
<rect x="165" y="542" width="30" height="5" rx="1" fill="black"/>
<path d="M187.286 557C187.567 557 187.836 556.881 188.026 556.673L193.48 550.673C194.064 550.03 193.608 549 192.74 549H166.432C165.737 549 165.254 549.692 165.493 550.344L167.692 556.344C167.837 556.738 168.212 557 168.631 557H187.286Z" fill="black"/>
<rect x="168" y="559" width="20" height="4" rx="1" fill="black"/>
<rect x="293" y="520" width="15" height="20" rx="1" fill="black"/>
<rect x="293" y="542" width="30" height="5" rx="1" fill="black"/>
<path d="M315.286 557C315.567 557 315.836 556.881 316.026 556.673L321.48 550.673C322.064 550.03 321.608 549 320.74 549H294.432C293.737 549 293.254 549.692 293.493 550.344L295.692 556.344C295.837 556.738 296.212 557 296.631 557H315.286Z" fill="black"/>
<rect x="296" y="559" width="20" height="4" rx="1" fill="black"/>
</svg>
