<svg width="588" height="1162" viewBox="0 0 588 1162" fill="none" xmlns="http://www.w3.org/2000/svg">
<rect x="188" y="1067.03" width="89.0323" height="58" transform="rotate(-90 188 1067.03)" fill="#D9D9D9"/>
<rect x="246" y="1162" width="94.9677" height="127" transform="rotate(-90 246 1162)" fill="#D9D9D9"/>
<rect x="246" y="1067" width="284" height="228" transform="rotate(-90 246 1067)" fill="#D9D9D9"/>
<rect x="324" y="783" width="529" height="150" transform="rotate(-90 324 783)" fill="#D9D9D9"/>
<rect x="276" y="559" width="78" height="48" transform="rotate(-90 276 559)" fill="#D9D9D9"/>
<rect x="22" y="254" width="254" height="541" transform="rotate(-90 22 254)" fill="#D9D9D9"/>
<rect x="474" y="1011" width="186" height="114" transform="rotate(-90 474 1011)" fill="#D9D9D9"/>
<path d="M263.761 1122V1107.45H268.676C269.813 1107.45 270.745 1107.65 271.474 1108.04C272.204 1108.42 272.743 1108.95 273.094 1109.62C273.444 1110.29 273.619 1111.06 273.619 1111.91C273.619 1112.77 273.444 1113.53 273.094 1114.19C272.743 1114.86 272.206 1115.38 271.482 1115.76C270.757 1116.13 269.831 1116.32 268.705 1116.32H264.727V1114.73H268.648C269.424 1114.73 270.049 1114.61 270.523 1114.39C271.001 1114.16 271.347 1113.84 271.56 1113.42C271.777 1113 271.886 1112.5 271.886 1111.91C271.886 1111.33 271.777 1110.82 271.56 1110.39C271.342 1109.95 270.994 1109.62 270.516 1109.38C270.037 1109.14 269.405 1109.02 268.619 1109.02H265.523V1122H263.761ZM270.608 1115.47L274.188 1122H272.142L268.619 1115.47H270.608ZM280.784 1122.23C279.733 1122.23 278.826 1122 278.064 1121.53C277.306 1121.06 276.721 1120.41 276.309 1119.57C275.902 1118.73 275.699 1117.75 275.699 1116.63C275.699 1115.51 275.902 1114.53 276.309 1113.68C276.721 1112.82 277.294 1112.15 278.028 1111.67C278.767 1111.19 279.628 1110.95 280.613 1110.95C281.181 1110.95 281.743 1111.04 282.297 1111.23C282.85 1111.42 283.355 1111.73 283.809 1112.16C284.264 1112.58 284.626 1113.14 284.896 1113.83C285.166 1114.53 285.301 1115.39 285.301 1116.4V1117.11H276.892V1115.66H283.596C283.596 1115.05 283.473 1114.5 283.227 1114.02C282.985 1113.53 282.64 1113.15 282.19 1112.87C281.745 1112.59 281.219 1112.45 280.613 1112.45C279.946 1112.45 279.368 1112.62 278.88 1112.95C278.397 1113.28 278.026 1113.7 277.765 1114.23C277.505 1114.76 277.375 1115.32 277.375 1115.92V1116.89C277.375 1117.71 277.517 1118.41 277.801 1118.98C278.09 1119.55 278.49 1119.98 279.001 1120.28C279.512 1120.57 280.107 1120.72 280.784 1120.72C281.224 1120.72 281.622 1120.66 281.977 1120.54C282.337 1120.41 282.647 1120.22 282.907 1119.97C283.168 1119.71 283.369 1119.4 283.511 1119.02L285.13 1119.47C284.96 1120.02 284.673 1120.5 284.271 1120.92C283.868 1121.33 283.371 1121.65 282.779 1121.89C282.188 1122.11 281.522 1122.23 280.784 1122.23ZM292.282 1122.23C291.26 1122.23 290.379 1121.99 289.64 1121.5C288.902 1121.02 288.333 1120.35 287.936 1119.51C287.538 1118.66 287.339 1117.69 287.339 1116.6C287.339 1115.49 287.543 1114.52 287.95 1113.67C288.362 1112.82 288.935 1112.15 289.669 1111.67C290.407 1111.19 291.269 1110.95 292.254 1110.95C293.021 1110.95 293.712 1111.09 294.328 1111.38C294.943 1111.66 295.448 1112.06 295.841 1112.57C296.234 1113.08 296.477 1113.68 296.572 1114.36H294.896C294.768 1113.86 294.484 1113.42 294.044 1113.04C293.608 1112.65 293.021 1112.45 292.282 1112.45C291.629 1112.45 291.056 1112.62 290.564 1112.97C290.076 1113.3 289.695 1113.78 289.42 1114.39C289.15 1115 289.015 1115.72 289.015 1116.55C289.015 1117.39 289.148 1118.12 289.413 1118.75C289.683 1119.37 290.062 1119.86 290.549 1120.2C291.042 1120.55 291.619 1120.72 292.282 1120.72C292.718 1120.72 293.113 1120.65 293.468 1120.49C293.824 1120.34 294.124 1120.12 294.37 1119.84C294.617 1119.56 294.792 1119.22 294.896 1118.82H296.572C296.477 1119.46 296.243 1120.04 295.869 1120.56C295.5 1121.07 295.01 1121.48 294.399 1121.78C293.793 1122.08 293.087 1122.23 292.282 1122.23ZM303.596 1122.23C302.545 1122.23 301.638 1122 300.876 1121.53C300.118 1121.06 299.534 1120.41 299.122 1119.57C298.715 1118.73 298.511 1117.75 298.511 1116.63C298.511 1115.51 298.715 1114.53 299.122 1113.68C299.534 1112.82 300.107 1112.15 300.841 1111.67C301.579 1111.19 302.441 1110.95 303.426 1110.95C303.994 1110.95 304.555 1111.04 305.109 1111.23C305.663 1111.42 306.167 1111.73 306.622 1112.16C307.076 1112.58 307.439 1113.14 307.708 1113.83C307.978 1114.53 308.113 1115.39 308.113 1116.4V1117.11H299.704V1115.66H306.409C306.409 1115.05 306.286 1114.5 306.039 1114.02C305.798 1113.53 305.452 1113.15 305.002 1112.87C304.557 1112.59 304.032 1112.45 303.426 1112.45C302.758 1112.45 302.181 1112.62 301.693 1112.95C301.21 1113.28 300.838 1113.7 300.578 1114.23C300.317 1114.76 300.187 1115.32 300.187 1115.92V1116.89C300.187 1117.71 300.329 1118.41 300.613 1118.98C300.902 1119.55 301.302 1119.98 301.814 1120.28C302.325 1120.57 302.919 1120.72 303.596 1120.72C304.037 1120.72 304.434 1120.66 304.789 1120.54C305.149 1120.41 305.459 1120.22 305.72 1119.97C305.98 1119.71 306.181 1119.4 306.324 1119.02L307.943 1119.47C307.772 1120.02 307.486 1120.5 307.083 1120.92C306.681 1121.33 306.184 1121.65 305.592 1121.89C305 1122.11 304.335 1122.23 303.596 1122.23ZM310.663 1126.09V1111.09H312.282V1112.82H312.481C312.604 1112.63 312.775 1112.39 312.993 1112.1C313.215 1111.8 313.532 1111.54 313.944 1111.3C314.361 1111.07 314.924 1110.95 315.635 1110.95C316.553 1110.95 317.363 1111.18 318.064 1111.64C318.764 1112.1 319.311 1112.75 319.704 1113.59C320.097 1114.43 320.294 1115.43 320.294 1116.57C320.294 1117.73 320.097 1118.73 319.704 1119.58C319.311 1120.42 318.767 1121.07 318.071 1121.54C317.375 1122 316.572 1122.23 315.663 1122.23C314.962 1122.23 314.401 1122.11 313.98 1121.88C313.558 1121.64 313.234 1121.37 313.007 1121.08C312.779 1120.77 312.604 1120.52 312.481 1120.32H312.339V1126.09H310.663ZM312.311 1116.55C312.311 1117.37 312.431 1118.1 312.673 1118.73C312.914 1119.35 313.267 1119.84 313.731 1120.2C314.195 1120.55 314.763 1120.72 315.436 1120.72C316.136 1120.72 316.721 1120.54 317.19 1120.17C317.663 1119.79 318.019 1119.29 318.255 1118.66C318.497 1118.03 318.618 1117.32 318.618 1116.55C318.618 1115.78 318.499 1115.09 318.262 1114.47C318.03 1113.85 317.678 1113.36 317.204 1113C316.735 1112.64 316.146 1112.45 315.436 1112.45C314.754 1112.45 314.181 1112.63 313.717 1112.97C313.253 1113.31 312.903 1113.79 312.666 1114.41C312.429 1115.02 312.311 1115.73 312.311 1116.55ZM327.595 1111.09V1112.51H321.941V1111.09H327.595ZM323.589 1108.48H325.265V1118.88C325.265 1119.35 325.334 1119.7 325.471 1119.94C325.613 1120.17 325.793 1120.33 326.011 1120.41C326.234 1120.48 326.468 1120.52 326.714 1120.52C326.899 1120.52 327.05 1120.51 327.169 1120.49C327.287 1120.47 327.382 1120.45 327.453 1120.44L327.794 1121.94C327.68 1121.99 327.521 1122.03 327.318 1122.07C327.114 1122.12 326.856 1122.14 326.544 1122.14C326.07 1122.14 325.606 1122.04 325.152 1121.84C324.702 1121.63 324.328 1121.32 324.029 1120.91C323.736 1120.49 323.589 1119.96 323.589 1119.33V1108.48ZM330.116 1122V1111.09H331.792V1122H330.116ZM330.968 1109.27C330.642 1109.27 330.36 1109.16 330.123 1108.94C329.891 1108.72 329.775 1108.45 329.775 1108.14C329.775 1107.82 329.891 1107.56 330.123 1107.33C330.36 1107.11 330.642 1107 330.968 1107C331.295 1107 331.574 1107.11 331.806 1107.33C332.043 1107.56 332.162 1107.82 332.162 1108.14C332.162 1108.45 332.043 1108.72 331.806 1108.94C331.574 1109.16 331.295 1109.27 330.968 1109.27ZM339.294 1122.23C338.309 1122.23 337.445 1121.99 336.702 1121.52C335.963 1121.06 335.385 1120.4 334.969 1119.56C334.557 1118.71 334.351 1117.73 334.351 1116.6C334.351 1115.47 334.557 1114.47 334.969 1113.63C335.385 1112.78 335.963 1112.12 336.702 1111.65C337.445 1111.18 338.309 1110.95 339.294 1110.95C340.279 1110.95 341.141 1111.18 341.879 1111.65C342.623 1112.12 343.2 1112.78 343.612 1113.63C344.029 1114.47 344.237 1115.47 344.237 1116.6C344.237 1117.73 344.029 1118.71 343.612 1119.56C343.2 1120.4 342.623 1121.06 341.879 1121.52C341.141 1121.99 340.279 1122.23 339.294 1122.23ZM339.294 1120.72C340.042 1120.72 340.658 1120.53 341.141 1120.15C341.624 1119.76 341.981 1119.26 342.213 1118.63C342.445 1118.01 342.561 1117.33 342.561 1116.6C342.561 1115.87 342.445 1115.19 342.213 1114.56C341.981 1113.93 341.624 1113.43 341.141 1113.04C340.658 1112.65 340.042 1112.45 339.294 1112.45C338.546 1112.45 337.93 1112.65 337.447 1113.04C336.964 1113.43 336.607 1113.93 336.375 1114.56C336.143 1115.19 336.027 1115.87 336.027 1116.6C336.027 1117.33 336.143 1118.01 336.375 1118.63C336.607 1119.26 336.964 1119.76 337.447 1120.15C337.93 1120.53 338.546 1120.72 339.294 1120.72ZM348.472 1115.44V1122H346.796V1111.09H348.415V1112.8H348.557C348.813 1112.24 349.201 1111.8 349.722 1111.46C350.243 1111.12 350.915 1110.95 351.739 1110.95C352.478 1110.95 353.124 1111.1 353.678 1111.4C354.232 1111.7 354.663 1112.16 354.971 1112.77C355.278 1113.37 355.432 1114.14 355.432 1115.07V1122H353.756V1115.18C353.756 1114.32 353.533 1113.66 353.088 1113.18C352.643 1112.7 352.033 1112.45 351.256 1112.45C350.721 1112.45 350.243 1112.57 349.821 1112.8C349.405 1113.03 349.076 1113.37 348.834 1113.82C348.593 1114.26 348.472 1114.8 348.472 1115.44Z" fill="black"/>
<path d="M4.11364 1031V1013.55H14.6477V1015.42H6.22727V1021.32H14.1023V1023.19H6.22727V1029.12H14.7841V1031H4.11364ZM20.196 1023.12V1031H18.1847V1017.91H20.1278V1019.95H20.2983C20.6051 1019.29 21.071 1018.76 21.696 1018.35C22.321 1017.94 23.1278 1017.74 24.1165 1017.74C25.0028 1017.74 25.7784 1017.92 26.4432 1018.28C27.108 1018.64 27.625 1019.19 27.9943 1019.92C28.3636 1020.65 28.5483 1021.57 28.5483 1022.68V1031H26.5369V1022.82C26.5369 1021.79 26.2699 1020.99 25.7358 1020.41C25.2017 1019.84 24.4688 1019.55 23.5369 1019.55C22.8949 1019.55 22.321 1019.68 21.8153 1019.96C21.3153 1020.24 20.9205 1020.65 20.6307 1021.18C20.3409 1021.72 20.196 1022.36 20.196 1023.12ZM37.9169 1017.91V1019.61H31.1328V1017.91H37.9169ZM33.1101 1014.77H35.1214V1027.25C35.1214 1027.82 35.2038 1028.24 35.3686 1028.53C35.5391 1028.81 35.755 1028.99 36.0163 1029.09C36.2834 1029.18 36.5646 1029.23 36.8601 1029.23C37.0817 1029.23 37.2635 1029.22 37.4055 1029.19C37.5476 1029.16 37.6612 1029.14 37.7464 1029.12L38.1555 1030.93C38.0192 1030.98 37.8288 1031.03 37.5845 1031.09C37.3402 1031.14 37.0305 1031.17 36.6555 1031.17C36.0874 1031.17 35.5305 1031.05 34.9851 1030.8C34.4453 1030.56 33.9964 1030.19 33.6385 1029.69C33.2862 1029.19 33.1101 1028.56 33.1101 1027.8V1014.77ZM40.9425 1031V1017.91H42.8857V1019.89H43.022C43.2607 1019.24 43.6925 1018.71 44.3175 1018.31C44.9425 1017.91 45.647 1017.7 46.4311 1017.7C46.5788 1017.7 46.7635 1017.71 46.9851 1017.71C47.2067 1017.72 47.3743 1017.73 47.4879 1017.74V1019.78C47.4197 1019.77 47.2635 1019.74 47.0192 1019.71C46.7805 1019.67 46.5277 1019.65 46.2607 1019.65C45.6243 1019.65 45.0561 1019.78 44.5561 1020.05C44.0618 1020.31 43.6697 1020.67 43.38 1021.14C43.0959 1021.6 42.9538 1022.12 42.9538 1022.72V1031H40.9425ZM53.7244 1031.31C52.8949 1031.31 52.142 1031.15 51.4659 1030.84C50.7898 1030.52 50.2528 1030.06 49.8551 1029.47C49.4574 1028.86 49.2585 1028.14 49.2585 1027.28C49.2585 1026.53 49.4063 1025.93 49.7017 1025.46C49.9972 1024.99 50.392 1024.62 50.8864 1024.35C51.3807 1024.09 51.9261 1023.89 52.5227 1023.76C53.125 1023.62 53.7301 1023.51 54.3381 1023.43C55.1335 1023.33 55.7784 1023.25 56.2727 1023.2C56.7727 1023.14 57.1364 1023.05 57.3636 1022.92C57.5966 1022.79 57.7131 1022.56 57.7131 1022.24V1022.17C57.7131 1021.33 57.483 1020.68 57.0227 1020.21C56.5682 1019.74 55.8778 1019.51 54.9517 1019.51C53.9915 1019.51 53.2386 1019.72 52.6932 1020.14C52.1477 1020.56 51.7642 1021.01 51.5426 1021.49L49.6335 1020.81C49.9744 1020.01 50.429 1019.39 50.9972 1018.95C51.571 1018.5 52.196 1018.19 52.8722 1018.01C53.554 1017.83 54.2244 1017.74 54.8835 1017.74C55.304 1017.74 55.7869 1017.79 56.3324 1017.89C56.8835 1017.99 57.4148 1018.19 57.9261 1018.5C58.4432 1018.8 58.8722 1019.27 59.2131 1019.89C59.554 1020.51 59.7244 1021.34 59.7244 1022.38V1031H57.7131V1029.23H57.6108C57.4744 1029.51 57.2472 1029.82 56.929 1030.14C56.6108 1030.46 56.1875 1030.74 55.6591 1030.97C55.1307 1031.19 54.4858 1031.31 53.7244 1031.31ZM54.0312 1029.5C54.8267 1029.5 55.4972 1029.34 56.0426 1029.03C56.5938 1028.72 57.0085 1028.32 57.2869 1027.82C57.571 1027.33 57.7131 1026.81 57.7131 1026.26V1024.42C57.6278 1024.52 57.4403 1024.62 57.1506 1024.7C56.8665 1024.78 56.5369 1024.85 56.1619 1024.91C55.7926 1024.97 55.4318 1025.02 55.0795 1025.07C54.733 1025.11 54.4517 1025.14 54.2358 1025.17C53.7131 1025.24 53.2244 1025.35 52.7699 1025.5C52.321 1025.65 51.9574 1025.87 51.679 1026.18C51.4063 1026.47 51.2699 1026.87 51.2699 1027.39C51.2699 1028.09 51.5284 1028.61 52.0455 1028.97C52.5682 1029.32 53.2301 1029.5 54.0312 1029.5ZM65.407 1023.12V1031H63.3956V1017.91H65.3388V1019.95H65.5092C65.8161 1019.29 66.282 1018.76 66.907 1018.35C67.532 1017.94 68.3388 1017.74 69.3274 1017.74C70.2138 1017.74 70.9893 1017.92 71.6541 1018.28C72.3189 1018.64 72.8359 1019.19 73.2053 1019.92C73.5746 1020.65 73.7592 1021.57 73.7592 1022.68V1031H71.7479V1022.82C71.7479 1021.79 71.4808 1020.99 70.9467 1020.41C70.4126 1019.84 69.6797 1019.55 68.7479 1019.55C68.1058 1019.55 67.532 1019.68 67.0263 1019.96C66.5263 1020.24 66.1314 1020.65 65.8416 1021.18C65.5518 1021.72 65.407 1022.36 65.407 1023.12ZM82.7528 1031.27C81.5256 1031.27 80.4688 1030.98 79.5824 1030.4C78.696 1029.82 78.0142 1029.03 77.5369 1028.01C77.0597 1026.99 76.821 1025.83 76.821 1024.52C76.821 1023.19 77.0653 1022.02 77.554 1021C78.0483 1019.98 78.7358 1019.18 79.6165 1018.61C80.5028 1018.03 81.5369 1017.74 82.7188 1017.74C83.6392 1017.74 84.4688 1017.91 85.2074 1018.25C85.946 1018.59 86.5511 1019.07 87.0227 1019.68C87.4943 1020.3 87.7869 1021.01 87.9006 1021.83H85.8892C85.7358 1021.23 85.3949 1020.7 84.8665 1020.24C84.3438 1019.78 83.6392 1019.55 82.7528 1019.55C81.9688 1019.55 81.2813 1019.75 80.6903 1020.16C80.1051 1020.56 79.6477 1021.13 79.3182 1021.87C78.9943 1022.61 78.8324 1023.47 78.8324 1024.45C78.8324 1025.47 78.9915 1026.35 79.3097 1027.1C79.6335 1027.85 80.0881 1028.43 80.6733 1028.84C81.2642 1029.26 81.9574 1029.47 82.7528 1029.47C83.2756 1029.47 83.75 1029.38 84.1761 1029.19C84.6023 1029.01 84.9631 1028.75 85.2585 1028.41C85.554 1028.07 85.7642 1027.66 85.8892 1027.18H87.9006C87.7869 1027.95 87.5057 1028.65 87.0568 1029.27C86.6136 1029.88 86.0256 1030.37 85.2926 1030.74C84.5653 1031.09 83.7188 1031.27 82.7528 1031.27ZM96.3295 1031.27C95.0682 1031.27 93.9801 1030.99 93.0653 1030.44C92.1562 1029.88 91.4545 1029.09 90.9602 1028.09C90.4716 1027.07 90.2273 1025.9 90.2273 1024.56C90.2273 1023.22 90.4716 1022.03 90.9602 1021.01C91.4545 1019.98 92.142 1019.18 93.0227 1018.61C93.9091 1018.03 94.9432 1017.74 96.125 1017.74C96.8068 1017.74 97.4801 1017.85 98.1449 1018.08C98.8097 1018.31 99.4148 1018.68 99.9602 1019.19C100.506 1019.69 100.94 1020.36 101.264 1021.2C101.588 1022.03 101.75 1023.06 101.75 1024.28V1025.14H91.6591V1023.4H99.7045C99.7045 1022.66 99.5568 1022 99.2614 1021.42C98.9716 1020.84 98.5568 1020.38 98.017 1020.05C97.483 1019.71 96.8523 1019.55 96.125 1019.55C95.3239 1019.55 94.6307 1019.74 94.0455 1020.14C93.4659 1020.53 93.0199 1021.05 92.7074 1021.68C92.3949 1022.31 92.2386 1022.98 92.2386 1023.7V1024.86C92.2386 1025.85 92.4091 1026.69 92.75 1027.38C93.0966 1028.06 93.5767 1028.58 94.1903 1028.94C94.804 1029.29 95.517 1029.47 96.3295 1029.47C96.858 1029.47 97.3352 1029.39 97.7614 1029.24C98.1932 1029.09 98.5653 1028.86 98.8778 1028.56C99.1903 1028.26 99.4318 1027.87 99.6023 1027.42L101.545 1027.97C101.341 1028.62 100.997 1029.2 100.514 1029.7C100.031 1030.2 99.4347 1030.59 98.7244 1030.86C98.0142 1031.14 97.2159 1031.27 96.3295 1031.27Z" fill="black"/>
<mask id="mask0_203_429" style="mask-type:alpha" maskUnits="userSpaceOnUse" x="166" y="1023" width="22" height="22">
<rect x="166" y="1045" width="22" height="22" transform="rotate(-90 166 1045)" fill="#D9D9D9"/>
</mask>
<g mask="url(#mask0_203_429)">
<line x1="187.5" y1="1044" x2="187.5" y2="1024" stroke="black" stroke-dasharray="6 6"/>
<circle cx="188" cy="1045" r="21.5" transform="rotate(-90 188 1045)" stroke="black"/>
<line x1="167" y1="1044.5" x2="188" y2="1044.5" stroke="black"/>
</g>
<mask id="mask1_203_429" style="mask-type:alpha" maskUnits="userSpaceOnUse" x="166" y="1001" width="22" height="22">
<rect width="22" height="22" transform="matrix(0 1 1 0 166 1001)" fill="#D9D9D9"/>
</mask>
<g mask="url(#mask1_203_429)">
<line x1="187.5" y1="1022" x2="187.5" y2="1002" stroke="black" stroke-dasharray="6 6"/>
<circle cx="22" cy="22" r="21.5" transform="matrix(0 1 1 0 166 979)" stroke="black"/>
<line y1="-0.5" x2="21" y2="-0.5" transform="matrix(1 0 0 -1 167 1001)" stroke="black"/>
</g>
<mask id="mask2_203_429" style="mask-type:alpha" maskUnits="userSpaceOnUse" x="453" y="907" width="22" height="22">
<rect width="22" height="22" transform="matrix(0 1 1 0 453 907)" fill="#D9D9D9"/>
</mask>
<g mask="url(#mask2_203_429)">
<circle cx="22" cy="22" r="21.5" transform="matrix(0 1 1 0 453 885)" stroke="black"/>
<line y1="-0.5" x2="21" y2="-0.5" transform="matrix(1 0 0 -1 454 907)" stroke="black"/>
<line x1="474.5" y1="928" x2="474.5" y2="908" stroke="black" stroke-dasharray="6 6"/>
</g>
<mask id="mask3_203_429" style="mask-type:alpha" maskUnits="userSpaceOnUse" x="520" y="880" width="22" height="22">
<rect width="22" height="22" transform="matrix(-1 0 0 1 542 880)" fill="#D9D9D9"/>
</mask>
<g mask="url(#mask3_203_429)">
<circle cx="22" cy="22" r="21.5" transform="matrix(-1 0 0 1 564 880)" stroke="black"/>
<line y1="-0.5" x2="21" y2="-0.5" transform="matrix(0 1 1 0 542 881)" stroke="black"/>
<line x1="521" y1="901.5" x2="541" y2="901.5" stroke="black" stroke-dasharray="6 6"/>
</g>
<mask id="mask4_203_429" style="mask-type:alpha" maskUnits="userSpaceOnUse" x="552" y="907" width="22" height="22">
<rect width="22" height="22" transform="matrix(0 -1 -1 0 574 929)" fill="#D9D9D9"/>
</mask>
<g mask="url(#mask4_203_429)">
<circle cx="22" cy="22" r="21.5" transform="matrix(0 -1 -1 0 574 951)" stroke="black"/>
<line y1="-0.5" x2="21" y2="-0.5" transform="matrix(-1 0 0 1 573 929)" stroke="black"/>
<line x1="552.5" y1="928" x2="552.5" y2="908" stroke="black" stroke-dasharray="6 6"/>
</g>
<mask id="mask5_203_429" style="mask-type:alpha" maskUnits="userSpaceOnUse" x="520" y="934" width="22" height="22">
<rect x="542" y="956" width="22" height="22" transform="rotate(-180 542 956)" fill="#D9D9D9"/>
</mask>
<g mask="url(#mask5_203_429)">
<circle cx="542" cy="934" r="21.5" transform="rotate(-180 542 934)" stroke="black"/>
<line x1="541.5" y1="955" x2="541.5" y2="934" stroke="black"/>
<line x1="521" y1="934.5" x2="541" y2="934.5" stroke="black" stroke-dasharray="6 6"/>
</g>
<mask id="mask6_203_429" style="mask-type:alpha" maskUnits="userSpaceOnUse" x="254" y="520" width="22" height="22">
<rect x="254" y="542" width="22" height="22" transform="rotate(-90 254 542)" fill="#D9D9D9"/>
</mask>
<g mask="url(#mask6_203_429)">
<line x1="275.5" y1="541" x2="275.5" y2="521" stroke="black" stroke-dasharray="6 6"/>
<circle cx="276" cy="542" r="21.5" transform="rotate(-90 276 542)" stroke="black"/>
<line x1="255" y1="541.5" x2="276" y2="541.5" stroke="black"/>
</g>
<mask id="mask7_203_429" style="mask-type:alpha" maskUnits="userSpaceOnUse" x="254" y="498" width="22" height="22">
<rect width="22" height="22" transform="matrix(0 1 1 0 254 498)" fill="#D9D9D9"/>
</mask>
<g mask="url(#mask7_203_429)">
<circle cx="22" cy="22" r="21.5" transform="matrix(0 1 1 0 254 476)" stroke="black"/>
<line y1="-0.5" x2="21" y2="-0.5" transform="matrix(1 0 0 -1 255 498)" stroke="black"/>
<line x1="275.5" y1="519" x2="275.5" y2="499" stroke="black" stroke-dasharray="6 6"/>
</g>
<mask id="mask8_203_429" style="mask-type:alpha" maskUnits="userSpaceOnUse" x="0" y="127" width="22" height="22">
<rect y="149" width="22" height="22" transform="rotate(-90 0 149)" fill="#D9D9D9"/>
</mask>
<g mask="url(#mask8_203_429)">
<line x1="21.5" y1="148" x2="21.5" y2="128" stroke="black" stroke-dasharray="6 6"/>
<circle cx="22" cy="149" r="21.5" transform="rotate(-90 22 149)" stroke="black"/>
<line x1="1" y1="148.5" x2="22" y2="148.5" stroke="black"/>
</g>
<mask id="mask9_203_429" style="mask-type:alpha" maskUnits="userSpaceOnUse" x="0" y="105" width="22" height="22">
<rect width="22" height="22" transform="matrix(0 1 1 0 0 105)" fill="#D9D9D9"/>
</mask>
<g mask="url(#mask9_203_429)">
<circle cx="22" cy="22" r="21.5" transform="matrix(0 1 1 0 0 83)" stroke="black"/>
<line y1="-0.5" x2="21" y2="-0.5" transform="matrix(1 0 0 -1 1 105)" stroke="black"/>
<line x1="21.5" y1="126" x2="21.5" y2="106" stroke="black" stroke-dasharray="6 6"/>
</g>
<rect x="22.5" y="39.5" width="39" height="39" transform="rotate(-90 22.5 39.5)" stroke="black"/>
<rect x="22.5" y="96.5" width="39" height="39" transform="rotate(-90 22.5 96.5)" stroke="black"/>
<rect x="22.5" y="48.5" width="9" height="39" transform="rotate(-90 22.5 48.5)" stroke="black"/>
<rect x="22.5" y="57.5" width="9" height="39" transform="rotate(-90 22.5 57.5)" stroke="black"/>
<rect x="61.5" y="39.5" width="39" height="9" transform="rotate(-90 61.5 39.5)" stroke="black"/>
<rect x="70.5" y="39.5" width="39" height="9" transform="rotate(-90 70.5 39.5)" stroke="black"/>
<rect x="61.5" y="96.5" width="39" height="9" transform="rotate(-90 61.5 96.5)" stroke="black"/>
<rect x="70.5" y="96.5" width="39" height="9" transform="rotate(-90 70.5 96.5)" stroke="black"/>
<rect x="79.5" y="39.5" width="39" height="9" transform="rotate(-90 79.5 39.5)" stroke="black"/>
<rect x="88.5" y="39.5" width="39" height="9" transform="rotate(-90 88.5 39.5)" stroke="black"/>
<rect x="97.5" y="39.5" width="39" height="9" transform="rotate(-90 97.5 39.5)" stroke="black"/>
<rect x="106.5" y="39.5" width="39" height="9" transform="rotate(-90 106.5 39.5)" stroke="black"/>
<rect x="115.5" y="39.5" width="39" height="9" transform="rotate(-90 115.5 39.5)" stroke="black"/>
<rect x="434.5" y="302.5" width="9" height="39" transform="rotate(-90 434.5 302.5)" stroke="black"/>
<rect x="434.5" y="311.5" width="9" height="39" transform="rotate(-90 434.5 311.5)" stroke="black"/>
<rect x="434.5" y="320.5" width="9" height="39" transform="rotate(-90 434.5 320.5)" stroke="black"/>
<rect x="434.5" y="329.5" width="9" height="39" transform="rotate(-90 434.5 329.5)" stroke="black"/>
<rect x="434.5" y="338.5" width="9" height="39" transform="rotate(-90 434.5 338.5)" stroke="black"/>
<rect x="434.5" y="347.5" width="9" height="39" transform="rotate(-90 434.5 347.5)" stroke="black"/>
<rect x="434.5" y="356.5" width="9" height="39" transform="rotate(-90 434.5 356.5)" stroke="black"/>
<rect x="434.5" y="365.5" width="9" height="39" transform="rotate(-90 434.5 365.5)" stroke="black"/>
<rect x="434.5" y="374.5" width="9" height="39" transform="rotate(-90 434.5 374.5)" stroke="black"/>
<rect x="425.5" y="413.5" width="39" height="9" transform="rotate(-90 425.5 413.5)" stroke="black"/>
<rect x="416.5" y="413.5" width="39" height="9" transform="matrix(0 -1 1 0 3 830)" stroke="black"/>
<rect x="425.5" y="293.5" width="39" height="9" transform="rotate(-90 425.5 293.5)" stroke="black"/>
<rect x="416.5" y="293.5" width="39" height="9" transform="rotate(-90 416.5 293.5)" stroke="black"/>
<rect x="434.5" y="293.5" width="39" height="39" transform="rotate(-90 434.5 293.5)" stroke="black"/>
<rect x="434.5" y="413.5" width="39" height="39" transform="rotate(-90 434.5 413.5)" stroke="black"/>
<line x1="475" y1="901.5" x2="520" y2="901.5" stroke="black"/>
<line x1="542" y1="901.5" x2="588" y2="901.5" stroke="black"/>
<line x1="474.5" y1="1011" x2="474.5" y2="929" stroke="black"/>
<line x1="474.5" y1="907" x2="474.5" y2="825" stroke="black"/>
<line x1="475" y1="934.5" x2="520" y2="934.5" stroke="black"/>
<line x1="542" y1="934.5" x2="588" y2="934.5" stroke="black"/>
<rect x="246.5" y="1068.5" width="3" height="126" transform="rotate(-90 246.5 1068.5)" stroke="black" stroke-dasharray="8 8"/>
<line x1="552.5" y1="934" x2="552.5" y2="929" stroke="black"/>
<line x1="552.5" y1="907" x2="552.5" y2="902" stroke="black"/>
<rect x="526.5" y="960.5" width="15" height="20" rx="1" fill="black"/>
<rect x="526.5" y="982.5" width="30" height="5" rx="1" fill="black"/>
<path d="M548.786 997.5C549.067 997.5 549.336 997.381 549.526 997.173L554.98 991.173C555.564 990.53 555.108 989.5 554.24 989.5H527.932C527.237 989.5 526.754 990.192 526.993 990.844L529.192 996.844C529.337 997.238 529.712 997.5 530.131 997.5H548.786Z" fill="black"/>
<rect x="529.5" y="999.5" width="20" height="4" rx="1" fill="black"/>
<rect x="526.5" y="832.5" width="15" height="20" rx="1" fill="black"/>
<rect x="526.5" y="854.5" width="30" height="5" rx="1" fill="black"/>
<path d="M548.786 869.5C549.067 869.5 549.336 869.381 549.526 869.173L554.98 863.173C555.564 862.53 555.108 861.5 554.24 861.5H527.932C527.237 861.5 526.754 862.192 526.993 862.844L529.192 868.844C529.337 869.238 529.712 869.5 530.131 869.5H548.786Z" fill="black"/>
<rect x="529.5" y="871.5" width="20" height="4" rx="1" fill="black"/>
<path d="M156.061 1024.06C156.646 1023.47 156.646 1022.53 156.061 1021.94L146.515 1012.39C145.929 1011.81 144.979 1011.81 144.393 1012.39C143.808 1012.98 143.808 1013.93 144.393 1014.51L152.879 1023L144.393 1031.49C143.808 1032.07 143.808 1033.02 144.393 1033.61C144.979 1034.19 145.929 1034.19 146.515 1033.61L156.061 1024.06ZM123 1024.5H155V1021.5H123V1024.5Z" fill="black"/>
</svg>
